HIERARCHY
ROOT Hips
{
	OFFSET 0.000000 0.000000 0.000000
	CHANNELS 6 Xposition Yposition Zposition Zrotation Yrotation Xrotation 
	JOINT LHipJoint
	{
		OFFSET 0.000000 0.000000 0.000000
		CHANNELS 3 Zrotation Yrotation Xrotation
		JOINT LeftUpLeg
		{
			OFFSET 1.363060 -1.794630 0.839290
			CHANNELS 3 Zrotation Yrotation Xrotation
			JOINT LeftLeg
			{
				OFFSET 2.448110 -6.726130 0.000000
				CHANNELS 3 Zrotation Yrotation Xrotation
				JOINT LeftFoot
				{
					OFFSET 2.562200 -7.039590 0.000000
					CHANNELS 3 Zrotation Yrotation Xrotation
					JOINT LeftToeBase
					{
						OFFSET 0.157640 -0.433110 2.322550
						CHANNELS 3 Zrotation Yrotation Xrotation
						End Site
						{
							OFFSET 0.000000 0.000000 0.000000
						}
					}
				}
			}
		}
	}
	JOINT RHipJoint
	{
		OFFSET 0.000000 0.000000 0.000000
		CHANNELS 3 Zrotation Yrotation Xrotation
		JOINT RightUpLeg
		{
			OFFSET -1.305520 -1.794630 0.839290
			CHANNELS 3 Zrotation Yrotation Xrotation
			JOINT RightLeg
			{
				OFFSET -2.542530 -6.985550 0.000000
				CHANNELS 3 Zrotation Yrotation Xrotation
				JOINT RightFoot
				{
					OFFSET -2.568260 -7.056230 0.000000
					CHANNELS 3 Zrotation Yrotation Xrotation
					JOINT RightToeBase
					{
						OFFSET -0.164730 -0.452590 2.363150
						CHANNELS 3 Zrotation Yrotation Xrotation
						End Site
						{
							OFFSET 0.000000 0.000000 0.000000
						}
					}
				}
			}
		}
	}
	JOINT LowerBack
	{
		OFFSET 0.000000 0.000000 0.000000
		CHANNELS 3 Zrotation Yrotation Xrotation
		JOINT Spine
		{
			OFFSET 0.028270 2.035590 -0.193380
			CHANNELS 3 Zrotation Yrotation Xrotation
			JOINT Spine1
			{
				OFFSET 0.056720 2.048850 -0.042750
				CHANNELS 3 Zrotation Yrotation Xrotation
				JOINT Neck
				{
					OFFSET 0.000000 0.000000 0.000000
					CHANNELS 3 Zrotation Yrotation Xrotation
					JOINT Neck1
					{
						OFFSET -0.054170 1.746240 0.172020
						CHANNELS 3 Zrotation Yrotation Xrotation
						JOINT Head
						{
							OFFSET 0.104070 1.761360 -0.123970
							CHANNELS 3 Zrotation Yrotation Xrotation
							End Site
							{
								OFFSET 0.000000 0.000000 0.000000
							}
						}
					}
				}
				JOINT LeftShoulder
				{
					OFFSET 0.000000 0.000000 0.000000
					CHANNELS 3 Zrotation Yrotation Xrotation
					JOINT LeftArm
					{
						OFFSET 3.362410 1.200890 -0.311210
						CHANNELS 3 Zrotation Yrotation Xrotation
						JOINT LeftForeArm
						{
							OFFSET 4.983000 -0.000000 -0.000000
							CHANNELS 3 Zrotation Yrotation Xrotation
							JOINT LeftHand
							{
								OFFSET 3.483560 -0.000000 -0.000000
								CHANNELS 3 Zrotation Yrotation Xrotation
								JOINT LeftFingerBase
								{
									OFFSET 0.000000 0.000000 0.000000
									CHANNELS 3 Zrotation Yrotation Xrotation
									JOINT LeftHandIndex1
									{
										OFFSET 0.715260 -0.000000 -0.000000
										CHANNELS 3 Zrotation Yrotation Xrotation
										End Site
										{
											OFFSET 0.000000 0.000000 0.000000
										}
									}
								}
								JOINT LThumb
								{
									OFFSET 0.000000 0.000000 0.000000
									CHANNELS 3 Zrotation Yrotation Xrotation
									End Site
									{
										OFFSET 0.000000 0.000000 0.000000
									}
								}
							}
						}
					}
				}
				JOINT RightShoulder
				{
					OFFSET 0.000000 0.000000 0.000000
					CHANNELS 3 Zrotation Yrotation Xrotation
					JOINT RightArm
					{
						OFFSET -3.136600 1.374050 -0.404650
						CHANNELS 3 Zrotation Yrotation Xrotation
						JOINT RightForeArm
						{
							OFFSET -5.241900 -0.000000 -0.000000
							CHANNELS 3 Zrotation Yrotation Xrotation
							JOINT RightHand
							{
								OFFSET -3.444170 -0.000000 -0.000000
								CHANNELS 3 Zrotation Yrotation Xrotation
								JOINT RightFingerBase
								{
									OFFSET 0.000000 0.000000 0.000000
									CHANNELS 3 Zrotation Yrotation Xrotation
									JOINT RightHandIndex1
									{
										OFFSET -0.622530 -0.000000 -0.000000
										CHANNELS 3 Zrotation Yrotation Xrotation
										End Site
										{
											OFFSET 0.000000 0.000000 0.000000
										}
									}
								}
								JOINT RThumb
								{
									OFFSET 0.000000 0.000000 0.000000
									CHANNELS 3 Zrotation Yrotation Xrotation
									End Site
									{
										OFFSET 0.000000 0.000000 0.000000
									}
								}
							}
						}
					}
				}
			}
		}
	}
}
MOTION
Frames: 4
Frame Time: 0.008333
-2.582326 16.082500 2.224332 122.360005 -86.228933 -120.703757 -9.440586 2.294568 -1.518820 -15.169580 8.789268 -13.034147 -2.462155 1.817378 41.571748 2.727250 9.480915 -30.086991 -4.621200 -0.000001 -22.614500 10.407564 2.322024 -0.809347 3.692849 -12.966638 -46.400880 0.939704 -3.531406 48.644036 -3.944090 -15.280838 -20.439449 2.815300 0.000000 -21.098300 -1.638211 -3.764059 1.707538 -0.825644 -3.671482 -1.956551 -5.628586 -3.630592 2.757790 10.710581 -16.861241 -13.435201 -2.078033 -0.065431 -1.607691 0.000000 0.000000 0.000000 3.764720 18.521662 1.436784 -60.705141 2.161783 -3.396046 -2.711921 -43.296337 -0.016951 7.196281 2.213194 0.137617 -0.184426 0.094656 0.000000 0.000000 0.000000 0.000000 0.000000 0.000000 0.000000 14.531419 -13.950194 1.236211 78.781082 -12.452654 -17.555160 4.153854 12.984025 0.007017 2.563565 2.520948 0.055187 0.106526 -0.039351 -0.000000 0.000000 0.000000 0.000000 0.000000 0.000000 0.000000 
-2.839222 16.173663 2.202595 117.596797 -86.695518 -116.058042 -9.588849 2.434660 -1.319573 -14.267226 8.911732 -10.808482 -2.507237 1.642175 38.901841 2.560541 8.931831 -28.865876 -4.179200 -0.000001 -24.007400 10.176655 2.193987 -0.757471 4.668049 -13.075167 -45.719477 1.105933 -3.247377 46.049733 -3.990341 -15.254832 -20.154821 2.718600 0.000000 -21.295000 -1.235731 -4.132028 1.370428 -0.727195 -4.075923 -1.988160 -5.622459 -4.032578 2.827903 10.808066 -17.448385 -13.429014 -2.080459 -0.065928 -1.591507 0.000000 0.000000 0.000000 4.310813 18.232108 1.353806 -59.188084 2.723723 -3.244305 -2.539991 -46.152730 -0.018708 6.863902 2.609684 0.155368 -0.185599 0.103686 0.000000 0.000000 0.000000 0.000000 0.000000 0.000000 0.000000 14.933432 -14.783728 1.198424 79.052834 -13.999241 -16.855446 4.286137 13.001701 0.005821 3.574960 1.934860 0.059757 0.102862 -0.029434 -0.000000 0.000000 0.000000 0.000000 0.000000 0.000000 0.000000 
-3.099189 16.272440 2.181584 112.244881 -87.178989 -110.878870 -9.760376 2.556578 -1.113154 -13.273293 8.957792 -8.442014 -2.506157 1.457627 36.071043 2.393696 8.510368 -27.351170 -3.740600 0.000000 -25.739400 9.932081 2.025120 -0.703874 5.653213 -13.100650 -44.743350 1.274809 -2.938919 43.238582 -4.041158 -15.274682 -19.848216 2.623500 0.000000 -21.551100 -0.785491 -4.493172 1.027182 -0.612173 -4.476093 -2.022544 -5.597980 -4.431066 2.896161 10.857796 -18.045689 -13.397748 -2.073407 -0.066183 -1.567942 0.000000 0.000000 0.000000 4.842878 17.962248 1.267296 -57.688305 3.373744 -3.015013 -2.368648 -48.841437 -0.020213 6.448268 3.074227 0.172806 -0.184945 0.111375 0.000000 0.000000 0.000000 0.000000 0.000000 0.000000 0.000000 15.245874 -15.612238 1.143023 79.225483 -15.585631 -16.017755 4.417993 13.239258 0.004616 4.565977 1.471280 0.058433 0.099339 -0.020120 -0.000000 0.000000 0.000000 0.000000 0.000000 0.000000 0.000000 
-3.361633 16.377270 2.161111 105.673854 -87.688459 -104.518112 -9.942645 2.665206 -0.900744 -12.209398 8.908451 -5.997181 -2.452271 1.275550 33.155640 2.231018 8.233891 -25.523956 -3.304900 0.000000 -27.904500 9.683087 1.822760 -0.638996 6.640040 -13.028312 -43.493964 1.443096 -2.606394 40.205402 -4.099979 -15.360000 -19.506987 2.526600 -0.000000 -21.898500 -0.284553 -4.841655 0.672065 -0.479775 -4.866392 -2.061296 -5.557261 -4.820643 2.961635 10.862714 -18.650427 -13.343766 -2.058364 -0.066299 -1.538102 0.000000 0.000000 0.000000 5.362885 17.710331 1.175795 -56.218001 4.070567 -2.710574 -2.200569 -51.342167 -0.021363 6.001356 3.542860 0.186130 -0.182672 0.118072 0.000000 0.000000 0.000000 0.000000 0.000000 0.000000 0.000000 15.474779 -16.431684 1.072978 79.313249 -17.193012 -15.150860 4.545602 13.645356 0.003419 5.509716 1.123924 0.053913 0.096052 -0.011587 -0.000000 0.000000 0.000000 0.000000 0.000000 0.000000 0.000000 
